<svg xmlns="http://www.w3.org/2000/svg" xmlns:xlink="http://www.w3.org/1999/xlink" width="1186" height="502" viewBox="0 0 1186 502"><defs><style>.a{fill:none;}.b{fill:#fff;}.c,.d{fill:#3ec7bf;}.c{font-size:48px;font-family:High Spirited;letter-spacing:0.02em;}.d{opacity:0.5;}.e,.f{isolation:isolate;}.e{clip-path:url(#g);}.f{clip-path:url(#h);}.g{fill:#3edad1;}.h{filter:url(#o);}.i{filter:url(#m);}.j{filter:url(#k);}.k{filter:url(#i);}.l{filter:url(#e);}.m{filter:url(#c);}.n{filter:url(#a);}</style><filter id="a" x="0" y="0" width="1186" height="502" filterUnits="userSpaceOnUse"><feOffset dy="3" input="SourceAlpha"/><feGaussianBlur stdDeviation="3" result="b"/><feFlood flood-opacity="0.161"/><feComposite operator="in" in2="b"/><feComposite in="SourceGraphic"/></filter><filter id="c" x="123" y="242" width="948" height="25" filterUnits="userSpaceOnUse"><feOffset dy="3" input="SourceAlpha"/><feGaussianBlur stdDeviation="3" result="d"/><feFlood flood-opacity="0.161"/><feComposite operator="in" in2="d"/><feComposite in="SourceGraphic"/></filter><filter id="e" x="584" y="219" width="25" height="72" filterUnits="userSpaceOnUse"><feOffset dy="3" input="SourceAlpha"/><feGaussianBlur stdDeviation="3" result="f"/><feFlood flood-opacity="0.161"/><feComposite operator="in" in2="f"/><feComposite in="SourceGraphic"/></filter><clipPath id="g"><rect class="a" x="-40" y="-9" width="926" height="137"/></clipPath><clipPath id="h"><rect class="a" x="9" y="-8" width="1416" height="137"/></clipPath><filter id="i" x="120" y="90" width="340" height="137" filterUnits="userSpaceOnUse"><feOffset dy="3" input="SourceAlpha"/><feGaussianBlur stdDeviation="3" result="j"/><feFlood flood-opacity="0.161"/><feComposite operator="in" in2="j"/><feComposite in="SourceGraphic"/></filter><filter id="k" x="649" y="90" width="232" height="137" filterUnits="userSpaceOnUse"><feOffset dy="3" input="SourceAlpha"/><feGaussianBlur stdDeviation="3" result="l"/><feFlood flood-opacity="0.161"/><feComposite operator="in" in2="l"/><feComposite in="SourceGraphic"/></filter><filter id="m" x="853" y="277" width="219" height="137" filterUnits="userSpaceOnUse"><feOffset dy="3" input="SourceAlpha"/><feGaussianBlur stdDeviation="3" result="n"/><feFlood flood-opacity="0.161"/><feComposite operator="in" in2="n"/><feComposite in="SourceGraphic"/></filter><filter id="o" x="442" y="277" width="252" height="137" filterUnits="userSpaceOnUse"><feOffset dy="3" input="SourceAlpha"/><feGaussianBlur stdDeviation="3" result="p"/><feFlood flood-opacity="0.161"/><feComposite operator="in" in2="p"/><feComposite in="SourceGraphic"/></filter></defs><g transform="translate(9 6)"><g class="n" transform="matrix(1, 0, 0, 1, -9, -6)"><rect class="b" width="1168" height="484" rx="18" transform="translate(9 6)"/></g><g transform="translate(22 215)"><text class="c" transform="translate(38 35)"><tspan x="-37.6" y="0">Start</tspan></text></g><g transform="translate(1079.119 215)"><text class="c" transform="translate(28.881 35)"><tspan x="-29.248" y="0">End</tspan></text></g><g transform="translate(123 242)"><g class="m" transform="matrix(1, 0, 0, 1, -132, -248)"><rect class="d" width="930" height="7" rx="3.5" transform="translate(132 248)"/></g></g><g transform="translate(591 219) rotate(90)"><g class="l" transform="matrix(0, -1, 1, 0, -225, 600)"><rect class="d" width="54" height="7" rx="3.5" transform="translate(600 225) rotate(90)"/></g></g><g class="e" transform="translate(150 93)"><g transform="translate(-36 -3)"><g class="f" transform="translate(-9 2)"><g transform="translate(164 -3286)"><g transform="translate(-149 3284)"><g class="k" transform="matrix(1, 0, 0, 1, -129, -96)"><rect class="g" width="322" height="119" rx="59.5" transform="translate(129 96)"/></g></g></g></g></g><g transform="translate(499 -3)"><g class="j" transform="matrix(1, 0, 0, 1, -658, -96)"><rect class="g" width="214" height="119" rx="59.5" transform="translate(658 96)"/></g></g></g><g transform="translate(853 277)"><g class="i" transform="matrix(1, 0, 0, 1, -862, -283)"><rect class="g" width="201" height="119" rx="59.5" transform="translate(862 283)"/></g></g><g transform="translate(442 277)"><g class="h" transform="matrix(1, 0, 0, 1, -451, -283)"><rect class="g" width="234" height="119" rx="59.5" transform="translate(451 283)"/></g></g></g></svg>